
<svg width="64" height="64" viewBox="0 0 64 64" fill="none" xmlns="http://www.w3.org/2000/svg">
  <path d="M56 40C54.9 40 54 40.9 54 42V54H10V42C10 40.9 9.1 40 8 40C6.9 40 6 40.9 6 42V56C6 58.2 7.8 60 10 60H54C56.2 60 58 58.2 58 56V42C58 40.9 57.1 40 56 40ZM31.7 43.7C32.1 44.1 32.5 44.3 33 44.3C33.5 44.3 33.9 44.1 34.3 43.7L46.3 31.7C47.1 30.9 47.1 29.7 46.3 28.9C45.5 28.1 44.3 28.1 43.5 28.9L36 36.4V8C36 6.9 35.1 6 34 6H32C30.9 6 30 6.9 30 8V36.4L22.5 28.9C21.7 28.1 20.5 28.1 19.7 28.9C18.9 29.7 18.9 30.9 19.7 31.7L31.7 43.7Z" fill="white"/>
</svg>
