
<svg width="64" height="64" viewBox="0 0 64 64" fill="none" xmlns="http://www.w3.org/2000/svg">
  <path d="M32 8C34.1 8 36 6.1 36 4C36 1.9 34.1 0 32 0C29.9 0 28 1.9 28 4C28 6.1 29.9 8 32 8ZM32 12C29.9 12 28 13.9 28 16V28H16C13.9 28 12 29.9 12 32C12 34.1 13.9 36 16 36H28V48C28 50.1 29.9 52 32 52C34.1 52 36 50.1 36 48V36H48C50.1 36 52 34.1 52 32C52 29.9 50.1 28 48 28H36V16C36 13.9 34.1 12 32 12ZM4 32C4 34.1 2.1 36 0 36C1.9 36 4 34.1 4 32C4 29.9 1.9 28 0 28C2.1 28 4 29.9 4 32ZM60 28C58.1 28 56 29.9 56 32C56 34.1 58.1 36 60 36C62.1 36 64 34.1 64 32C64 29.9 62.1 28 60 28ZM32 56C29.9 56 28 57.9 28 60C28 62.1 29.9 64 32 64C34.1 64 36 62.1 36 60C36 57.9 34.1 56 32 56Z" fill="white"/>
</svg>
